<svg width="1600" height="980" viewBox="0 0 1600 980" fill="none" xmlns="http://www.w3.org/2000/svg">
  <rect width="1600" height="980" rx="36" fill="#F8FAFC"/>
  <rect x="52" y="52" width="1496" height="876" rx="30" fill="#FFFFFF" stroke="#CBD5E1"/>
  <rect x="52" y="52" width="1496" height="72" rx="30" fill="#0F172A"/>
  <circle cx="104" cy="88" r="10" fill="#F97316"/>
  <circle cx="138" cy="88" r="10" fill="#FACC15"/>
  <circle cx="172" cy="88" r="10" fill="#22C55E"/>
  <text x="220" y="95" fill="#E2E8F0" font-family="Segoe UI, Arial, sans-serif" font-size="24">Doctoral Thesis Pipeline</text>
  <rect x="96" y="170" width="496" height="678" rx="24" fill="#F8FAFC" stroke="#E2E8F0"/>
  <text x="128" y="222" fill="#0F172A" font-family="Georgia, 'Times New Roman', serif" font-size="34" font-weight="700">Pipeline Console</text>
  <text x="128" y="258" fill="#475569" font-family="Segoe UI, Arial, sans-serif" font-size="20">Research intake and stage normalization</text>
  <rect x="128" y="304" width="432" height="84" rx="18" fill="#FFFFFF" stroke="#CBD5E1"/>
  <text x="156" y="340" fill="#334155" font-family="Segoe UI, Arial, sans-serif" font-size="18">Stage</text>
  <text x="156" y="367" fill="#0F172A" font-family="Segoe UI, Arial, sans-serif" font-size="24">Doctoral Proposal</text>
  <rect x="128" y="408" width="432" height="112" rx="18" fill="#FFFFFF" stroke="#CBD5E1"/>
  <text x="156" y="444" fill="#334155" font-family="Segoe UI, Arial, sans-serif" font-size="18">Topic</text>
  <text x="156" y="474" fill="#0F172A" font-family="Segoe UI, Arial, sans-serif" font-size="22">AI-generated cruise promotional</text>
  <text x="156" y="502" fill="#0F172A" font-family="Segoe UI, Arial, sans-serif" font-size="22">short videos and travel intention</text>
  <rect x="128" y="548" width="432" height="90" rx="18" fill="#FFFFFF" stroke="#CBD5E1"/>
  <text x="156" y="584" fill="#334155" font-family="Segoe UI, Arial, sans-serif" font-size="18">Framework</text>
  <text x="156" y="612" fill="#0F172A" font-family="Segoe UI, Arial, sans-serif" font-size="24">Stimulus-Organism-Response</text>
  <rect x="128" y="676" width="432" height="56" rx="18" fill="#163B72"/>
  <text x="282" y="711" fill="#FFFFFF" font-family="Segoe UI, Arial, sans-serif" font-size="22" font-weight="700">Run Proposal Workflow</text>
  <rect x="650" y="170" width="844" height="678" rx="24" fill="#F8FAFC" stroke="#E2E8F0"/>
  <text x="686" y="222" fill="#0F172A" font-family="Georgia, 'Times New Roman', serif" font-size="34" font-weight="700">Generated Thesis Package</text>
  <rect x="686" y="264" width="772" height="134" rx="20" fill="#FFFFFF" stroke="#CBD5E1"/>
  <text x="718" y="312" fill="#475569" font-family="Segoe UI, Arial, sans-serif" font-size="18">Title</text>
  <text x="718" y="348" fill="#0F172A" font-family="Georgia, 'Times New Roman', serif" font-size="30" font-weight="700">The Influence of AI-Generated Cruise Promotional Short Videos</text>
  <text x="718" y="381" fill="#0F172A" font-family="Georgia, 'Times New Roman', serif" font-size="30" font-weight="700">on Tourists' Cruise Travel Intention</text>
  <rect x="686" y="426" width="242" height="164" rx="20" fill="#FFFFFF" stroke="#CBD5E1"/>
  <rect x="951" y="426" width="242" height="164" rx="20" fill="#FFFFFF" stroke="#CBD5E1"/>
  <rect x="1216" y="426" width="242" height="164" rx="20" fill="#FFFFFF" stroke="#CBD5E1"/>
  <text x="714" y="464" fill="#0F172A" font-family="Segoe UI, Arial, sans-serif" font-size="20" font-weight="700">Backbone</text>
  <text x="714" y="498" fill="#334155" font-family="Segoe UI, Arial, sans-serif" font-size="18">Title aligned</text>
  <text x="714" y="528" fill="#334155" font-family="Segoe UI, Arial, sans-serif" font-size="18">RQ chain coherent</text>
  <text x="714" y="558" fill="#334155" font-family="Segoe UI, Arial, sans-serif" font-size="18">Method specified</text>
  <text x="979" y="464" fill="#0F172A" font-family="Segoe UI, Arial, sans-serif" font-size="20" font-weight="700">Evidence</text>
  <text x="979" y="498" fill="#334155" font-family="Segoe UI, Arial, sans-serif" font-size="18">Query plan</text>
  <text x="979" y="528" fill="#334155" font-family="Segoe UI, Arial, sans-serif" font-size="18">Reading notes</text>
  <text x="979" y="558" fill="#334155" font-family="Segoe UI, Arial, sans-serif" font-size="18">Evidence table</text>
  <text x="1244" y="464" fill="#0F172A" font-family="Segoe UI, Arial, sans-serif" font-size="20" font-weight="700">Outputs</text>
  <text x="1244" y="498" fill="#334155" font-family="Segoe UI, Arial, sans-serif" font-size="18">Chapter 1</text>
  <text x="1244" y="528" fill="#334155" font-family="Segoe UI, Arial, sans-serif" font-size="18">Chapter 2</text>
  <text x="1244" y="558" fill="#334155" font-family="Segoe UI, Arial, sans-serif" font-size="18">Chapter 3</text>
  <rect x="686" y="620" width="772" height="190" rx="20" fill="#FFFFFF" stroke="#CBD5E1"/>
  <text x="718" y="664" fill="#0F172A" font-family="Segoe UI, Arial, sans-serif" font-size="22" font-weight="700">System Log</text>
  <text x="718" y="708" fill="#334155" font-family="Segoe UI, Arial, sans-serif" font-size="18">1. Classified thesis stage and locked proposal mode</text>
  <text x="718" y="742" fill="#334155" font-family="Segoe UI, Arial, sans-serif" font-size="18">2. Repaired title, framework, variables, and method alignment</text>
  <text x="718" y="776" fill="#334155" font-family="Segoe UI, Arial, sans-serif" font-size="18">3. Prepared literature scaffolding and gate-check expectations</text>
</svg>
